<?xml version="1.0" standalone="no"?>
<!DOCTYPE svg PUBLIC "-//W3C//DTD SVG 20010904//EN"
 "http://www.w3.org/TR/2001/REC-SVG-20010904/DTD/svg10.dtd">
<svg version="1.0" xmlns="http://www.w3.org/2000/svg"
 width="128.000000pt" height="128.000000pt" viewBox="0 0 128.000000 128.000000"
 preserveAspectRatio="xMidYMid meet">

<g transform="translate(0.000000,128.000000) scale(0.100000,-0.100000)"
fill="#000000" stroke="none">
<path d="M669 1270 c146 -31 280 -106 371 -208 84 -93 160 -270 160 -371 l0
-41 -62 0 c-79 0 -248 55 -248 82 0 15 -38 49 -186 166 l-54 43 0 130 c0 167
-18 173 -22 7 l-3 -123 -28 -3 c-23 -3 -33 -12 -48 -47 -21 -48 -66 -90 -118
-112 -39 -17 -76 -7 -123 32 -36 31 -78 32 -104 4 -14 -16 -20 -40 -23 -100
l-3 -79 -49 0 c-27 0 -49 -4 -49 -10 0 -5 23 -10 50 -10 l50 0 0 -74 c0 -91
11 -122 50 -144 16 -9 30 -23 30 -29 0 -7 7 -13 15 -13 8 0 15 5 15 10 0 6 18
10 40 10 22 0 40 -4 40 -10 0 -5 7 -10 15 -10 8 0 15 5 15 10 0 6 18 10 40 10
22 0 40 -4 40 -10 0 -5 7 -10 15 -10 8 0 15 5 15 10 0 6 27 10 60 10 l60 0 0
-160 c0 -100 4 -160 10 -160 6 0 10 60 10 160 l0 160 24 0 c13 0 26 -6 29 -12
3 -10 9 -10 26 0 27 16 78 16 84 0 3 -10 9 -10 26 0 25 14 81 16 81 2 0 -5 7
-10 15 -10 8 0 15 5 15 10 0 6 18 10 40 10 22 0 40 -4 40 -10 0 -22 27 -8 68
35 36 38 42 50 42 87 0 24 -9 61 -20 83 -11 22 -20 41 -20 42 0 2 23 3 50 3
l50 0 0 -42 c0 -103 -75 -275 -161 -371 -90 -101 -224 -176 -370 -207 -37 -8
-34 -8 26 -4 254 21 465 189 551 439 24 69 28 96 28 195 0 99 -4 126 -28 195
-86 250 -297 418 -551 439 -60 4 -63 4 -26 -4z m-45 -376 c3 -9 6 -33 6 -55 0
-40 -14 -51 -38 -27 -13 13 -17 80 -5 91 11 12 31 7 37 -9z m107 -66 c33 -29
74 -62 90 -73 16 -11 29 -26 29 -32 0 -23 -46 -14 -121 25 l-74 37 -3 48 c-2
27 1 47 7 47 5 0 38 -24 72 -52z m-173 -33 c6 -14 15 -25 19 -25 5 0 15 -5 23
-10 13 -8 5 -28 -45 -124 l-60 -116 -56 0 -56 0 -19 47 c-11 27 -20 51 -22 55
-2 5 42 8 97 8 61 0 101 4 101 10 0 6 -41 10 -104 10 -90 0 -111 3 -160 26
-54 24 -56 27 -56 64 0 78 23 89 85 40 51 -40 92 -47 146 -22 24 10 53 29 63
41 24 27 30 27 44 -4z m152 -90 c0 -3 -11 -22 -24 -43 -13 -20 -34 -61 -47
-89 -23 -50 -26 -53 -61 -53 -21 0 -38 3 -38 8 0 4 15 32 33 62 18 30 43 76
56 102 l23 48 29 -15 c16 -9 29 -18 29 -20z m134 -31 c112 -5 107 -24 -7 -24
-58 0 -97 -4 -97 -10 0 -6 46 -10 119 -10 65 0 133 -3 150 -6 39 -8 91 -55 91
-83 0 -21 -3 -21 -221 -21 -129 0 -219 4 -217 9 2 5 21 43 43 85 30 56 44 74
55 69 8 -3 46 -7 84 -9z m-556 -60 c18 -12 52 -72 52 -90 0 -2 -27 -4 -60 -4
l-60 0 0 55 c0 51 2 55 23 55 12 0 33 -7 45 -16z m337 -159 c0 -19 -8 -20
-170 -23 -173 -3 -225 5 -225 34 0 12 34 14 198 12 189 -3 197 -4 197 -23z
m469 16 c3 -5 -2 -15 -11 -22 -12 -11 -65 -15 -216 -17 -201 -3 -226 0 -214
32 6 14 35 16 221 16 118 0 217 -4 220 -9z"/>
</g>
</svg>
